<?xml version="1.0" encoding="UTF-8"?>
<!-- Generator: https://ezgif.com/png-to-svg -->
<svg version="1.1" xmlns="http://www.w3.org/2000/svg" width="1024" height="1024">
<path d="M0 0 C1.37 -0.04 1.37 -0.04 2.77 -0.09 C5.15 -0.06 6.82 0.03 9 1 C11.58 4.4 12.67 8.31 13.48 12.46 C14.04 15.01 14.54 16.81 16 19 C19.85 21.09 23.75 22.04 28 23 C29.2 23.43 30.39 23.87 31.62 24.31 C36.71 23.84 39.02 20.57 42.38 16.91 C45 15 45 15 48.37 14.89 C52.83 16.26 55.61 18.32 59.12 21.31 C59.72 21.8 60.31 22.29 60.93 22.79 C62.08 23.74 63.24 24.69 64.39 25.65 C66.56 27.47 68.78 29.24 71 31 C70.51 35.82 68.97 39.42 66.74 43.66 C65.71 46.9 66.05 48.73 67 52 C68.41 54.46 70.08 56.69 71.81 58.94 C75.7 64.09 79.11 69.21 82 75 C83.86 75.36 83.86 75.36 86.06 75.44 C91.83 75.98 97.14 76.79 101 81.38 C102.05 84.13 102.25 86.08 102 89 C102.66 89 103.32 89 104 89 C103.67 89.66 103.34 90.32 103 91 C97 93 89.99 92.05 83.7 91.92 C81.9 91.89 80.1 91.87 78.3 91.86 C75.7 91.84 73.1 91.8 70.5 91.74 C69.69 91.74 68.89 91.74 68.06 91.74 C65.78 91.68 65.78 91.68 62 91 C60.09 88.65 60.09 88.65 59 86 C47.64 67.31 34.35 52.82 12.5 47.06 C8.58 46.14 5.02 45.99 1 46 C0.67 45.67 0.34 45.34 0 45 C-18.16 43.75 -36.1 50.81 -49.85 62.4 C-64.1 75.77 -71.65 93.8 -72.31 113.31 C-71.9 131.24 -65.14 148.57 -52.88 161.69 C-41.75 172.19 -26.49 179.65 -11 180 C-9.98 180.03 -8.95 180.05 -7.89 180.08 C-1.85 180.24 -1.85 180.24 4 179 C5.28 178.92 6.56 178.84 7.88 178.75 C22.69 177.17 37.62 168.38 47 157 C51.02 151.36 53.07 146.76 55 140 C45.1 139.67 35.2 139.34 25 139 C26.51 135.98 27.56 134.22 29.62 131.75 C32.77 127.67 34.96 123.31 37.21 118.7 C37.58 117.96 37.94 117.22 38.32 116.46 C39.22 114.64 40.11 112.82 41 111 C49.2 111.11 57.39 111.22 65.59 111.34 C69.4 111.39 73.2 111.45 77.01 111.5 C80.68 111.54 84.35 111.6 88.02 111.65 C89.42 111.67 90.82 111.69 92.23 111.71 C94.19 111.73 96.14 111.76 98.1 111.79 C99.22 111.81 100.34 111.83 101.49 111.84 C104 112 104 112 105 113 C105.67 120.03 104.88 126.9 103.69 133.81 C103.57 134.52 103.45 135.22 103.33 135.95 C102.29 141.61 101.18 147.43 96.31 150.94 C93.39 151.87 91.72 152.12 88.75 152.06 C86.89 152.03 86.89 152.03 85 152 C84.34 152.66 83.68 153.32 83 154 C83 153.34 83 152.68 83 152 C82.34 152 81.68 152 81 152 C80.77 152.84 80.55 153.68 80.31 154.55 C78.76 158.64 76.6 161.7 74 165.19 C73.1 166.41 72.21 167.63 71.31 168.86 C70.55 169.89 69.79 170.93 69 172 C68.34 172.99 67.68 173.98 67 175 C68.07 178.35 69.5 181.46 70.93 184.68 C72.15 188.48 72.36 190.24 71 194 C68.93 195.97 67.07 197.51 64.75 199.12 C63.6 199.96 62.45 200.8 61.3 201.63 C60.73 202.03 60.17 202.42 59.59 202.83 C57.79 204.11 57.79 204.11 55.52 206.24 C52.21 208.55 50.03 209.04 46 209 C43.09 207.09 43.09 207.09 40.38 204.5 C37.76 201.9 37.76 201.9 35 200 C32.55 200.02 32.55 200.02 30 201 C28.8 201.21 27.6 201.42 26.37 201.63 C22.3 202.52 18.33 203.39 15 206 C12.78 209.87 12.31 214.12 11.74 218.48 C11 222 11 222 9.27 223.2 C6.7 224.1 4.69 224.26 1.97 224.27 C0.54 224.27 0.54 224.27 -0.93 224.27 C-2.42 224.26 -2.42 224.26 -3.94 224.25 C-4.93 224.26 -5.92 224.27 -6.94 224.27 C-7.89 224.27 -8.85 224.27 -9.84 224.27 C-10.71 224.26 -11.58 224.26 -12.48 224.26 C-15.34 223.97 -17.43 223.3 -20 222 C-22.27 218.59 -22.57 216.34 -23.12 212.31 C-23.29 211.13 -23.46 209.95 -23.63 208.74 C-23.75 207.83 -23.88 206.93 -24 206 C-24.77 205.82 -25.55 205.64 -26.34 205.45 C-27.39 205.2 -28.43 204.95 -29.5 204.69 C-31.16 204.3 -31.16 204.3 -32.84 203.9 C-35.61 203.11 -37.55 202.17 -40 200.75 C-41.85 199.82 -41.85 199.82 -44 200 C-47.4 202.07 -50.17 204.3 -53.17 206.93 C-56 209 -56 209 -58.43 209.59 C-62.22 208.72 -64.96 206.56 -68 204.25 C-68.6 203.81 -69.21 203.36 -69.83 202.91 C-71.01 202.03 -72.19 201.14 -73.36 200.25 C-74.84 199.12 -76.35 198.05 -77.88 196.98 C-80 195 -80 195 -80.98 192.65 C-81.01 189.11 -79.82 186.81 -78.31 183.62 C-76.1 178.53 -76.1 178.53 -77.31 173.25 C-77.74 172.74 -78.16 172.23 -78.6 171.7 C-80 170 -80 170 -81.06 167.58 C-82.44 164.67 -83.44 163 -86 161 C-90.23 160.44 -94.08 160.55 -98.32 160.88 C-103.66 161.05 -103.66 161.05 -106 159 C-107.07 156.6 -107.89 154.43 -108.62 151.94 C-108.83 151.26 -109.04 150.59 -109.26 149.89 C-109.86 147.93 -110.43 145.97 -111 144 C-111.29 143.07 -111.57 142.14 -111.87 141.18 C-112.8 137.8 -113.29 135.67 -111.86 132.39 C-109.68 129.58 -108.1 129.05 -104.81 127.81 C-102.01 126.46 -102.01 126.46 -100 124 C-98.29 117.46 -98.55 109.25 -101.3 103.07 C-103.11 100.87 -104.39 99.97 -107 98.88 C-109.9 97.63 -112.07 96.55 -114 94 C-113.56 90.82 -112.88 88.08 -112 85 C-111.63 83.58 -111.25 82.16 -110.88 80.73 C-110.47 79.2 -110.05 77.66 -109.62 76.12 C-109.43 75.38 -109.23 74.63 -109.03 73.85 C-108.17 70.84 -107.32 68.39 -105.31 65.95 C-102.54 64.81 -100.41 65.05 -97.47 65.4 C-91.07 66.13 -91.07 66.13 -85.29 63.79 C-81.19 59.6 -77.86 54.57 -76 49 C-77.16 45.66 -78.57 42.47 -79.97 39.23 C-81.09 35.72 -81.45 34.37 -80 31 C-77.95 28.96 -76 27.21 -73.75 25.44 C-72.89 24.73 -72.89 24.73 -72.01 24.02 C-70.88 23.1 -69.75 22.18 -68.6 21.28 C-67.14 20.11 -65.7 18.92 -64.25 17.73 C-61.27 15.44 -59.8 14.78 -56 15 C-53.74 16.58 -51.81 18.32 -49.83 20.24 C-47.92 22.18 -47.92 22.18 -45 24 C-42.14 23.9 -39.78 23.57 -37 23 C-35.99 22.86 -34.99 22.71 -33.95 22.56 C-30.4 21.8 -27.99 21.08 -25 19 C-23.25 15.14 -22.37 11.58 -21.65 7.43 C-21 4 -21 4 -19 1 C-12.94 -0.87 -6.26 -0.12 0 0 Z " fill="#C21E26" transform="translate(278,381)"/>
<path d="M0 0 C11.15 -0.34 21.7 1.63 32.25 5.15 C32.25 11.75 32.25 18.35 32.25 25.15 C26.25 23.15 26.25 23.15 23.91 22.34 C23.2 22.09 22.49 21.84 21.75 21.59 C21.04 21.34 20.33 21.09 19.6 20.84 C8.73 17.67 -2.62 17.96 -12.75 23.15 C-19.97 27.53 -23.41 34.2 -25.57 42.2 C-27.58 52.67 -27.15 63.98 -21.29 73.19 C-16.34 79.51 -10.76 83.8 -2.75 85.15 C4.91 85.74 11.86 85.16 19.25 83.15 C19.24 82.49 19.23 81.82 19.22 81.13 C19.15 74.41 19.53 67.83 20.25 61.15 C19.43 61.22 18.61 61.3 17.77 61.37 C16.15 61.51 16.15 61.51 14.5 61.65 C13.44 61.75 12.37 61.84 11.27 61.93 C6.91 62.25 4.06 62.33 0.25 60.15 C0.23 57.51 0.21 54.86 0.19 52.21 C0.18 51.46 0.17 50.71 0.17 49.93 C0.16 48 0.2 46.08 0.25 44.15 C2.07 42.34 4.57 43.02 6.98 43.01 C7.78 43.02 8.58 43.02 9.41 43.02 C10.23 43.02 11.05 43.02 11.89 43.02 C13.62 43.02 15.35 43.02 17.08 43.02 C19.74 43.03 22.4 43.02 25.06 43.02 C26.74 43.02 28.42 43.02 30.1 43.02 C30.9 43.02 31.7 43.02 32.53 43.01 C38.14 43.04 38.14 43.04 39.25 44.15 C39.37 45.73 39.42 47.32 39.45 48.9 C39.46 49.91 39.48 50.92 39.5 51.96 C39.54 56.59 39.58 61.22 39.6 65.85 C39.62 68.3 39.65 70.75 39.69 73.19 C39.74 76.71 39.76 80.22 39.78 83.74 C39.8 84.84 39.82 85.93 39.85 87.06 C39.84 89.85 39.8 92.42 39.25 95.15 C36.85 97.31 36.85 97.31 34.25 98.15 C33.57 98.44 32.89 98.73 32.18 99.03 C14.11 105.05 -6.98 106.12 -24.37 97.59 C-36.31 90.55 -44.15 80.11 -47.65 66.67 C-50.16 52.07 -49.03 35.9 -40.81 23.21 C-39.81 21.85 -38.79 20.49 -37.75 19.15 C-37 18.12 -36.26 17.09 -35.5 16.03 C-26.06 6.17 -13.55 0.75 0 0 Z " fill="#C21C24" transform="translate(443.74609375,425.84765625)"/>
<path d="M0 0 C6.6 0 13.2 0 20 0 C20.01 2.08 20.02 4.16 20.03 6.3 C20.06 13.19 20.12 20.08 20.18 26.97 C20.22 31.14 20.26 35.31 20.27 39.49 C20.29 43.52 20.32 47.56 20.37 51.59 C20.38 53.12 20.39 54.66 20.39 56.19 C20.4 64.37 20.54 70.91 25 78 C25 78.66 25 79.32 25 80 C34.22 83.91 42.45 85.78 52 82 C57.1 77.71 59.97 73.88 60.57 67.22 C61.13 60.34 61.13 53.48 61.1 46.58 C61.1 45.23 61.09 43.88 61.09 42.53 C61.09 39.01 61.08 35.49 61.07 31.97 C61.06 28.36 61.05 24.75 61.05 21.15 C61.04 14.1 61.02 7.05 61 0 C67.93 0 74.86 0 82 0 C81.96 9.03 81.9 18.07 81.82 27.1 C81.78 31.29 81.74 35.49 81.73 39.68 C81.71 43.74 81.68 47.8 81.63 51.86 C81.62 53.4 81.61 54.94 81.61 56.48 C81.59 68.96 80.51 81.18 72.06 91.06 C62.26 100.28 50.5 102.36 37.47 102.21 C26.72 101.56 16.63 98.75 8.93 90.89 C-0.64 79.3 -0.15 66.72 -0.1 52.34 C-0.1 50.83 -0.09 49.32 -0.09 47.8 C-0.09 43.85 -0.08 39.89 -0.07 35.93 C-0.06 31.88 -0.05 27.83 -0.05 23.78 C-0.04 15.85 -0.02 7.93 0 0 Z " fill="#2F2E2E" transform="translate(702,427)"/>
<path d="M0 0 C8.41 6.69 11.74 16.7 13.06 27.12 C13.81 39.77 10.97 51.68 3.19 61.75 C-4.1 68.87 -13.03 72.13 -23.14 72.04 C-28.78 71.43 -34.69 68.69 -38.81 64.75 C-38.81 64.09 -38.81 63.43 -38.81 62.75 C-39.47 62.75 -40.13 62.75 -40.81 62.75 C-40.76 64.11 -40.76 64.11 -40.7 65.49 C-40.58 68.83 -40.45 72.17 -40.33 75.51 C-40.28 76.96 -40.22 78.41 -40.16 79.86 C-40.08 81.93 -40.01 84.01 -39.93 86.09 C-39.89 87.34 -39.84 88.59 -39.79 89.88 C-39.81 92.75 -39.81 92.75 -40.81 93.75 C-43.08 94.01 -45.35 94.21 -47.62 94.38 C-48.87 94.47 -50.11 94.57 -51.39 94.66 C-54.27 94.74 -56.11 94.51 -58.81 93.75 C-59.91 31 -59.91 31 -59.94 10.44 C-59.94 9.13 -59.95 7.82 -59.95 6.47 C-59.95 5.3 -59.95 4.14 -59.95 2.95 C-59.94 1.98 -59.94 1.01 -59.94 0.01 C-59.81 -2.25 -59.81 -2.25 -58.81 -4.25 C-52.87 -3.92 -46.93 -3.59 -40.81 -3.25 C-40.81 -0.61 -40.81 2.03 -40.81 4.75 C-40.33 4.28 -39.84 3.81 -39.34 3.32 C-28.11 -7.11 -13.21 -8.64 0 0 Z M-37.06 17 C-41.67 24.24 -41.81 33.24 -40.31 41.5 C-38.93 46.77 -37.46 50.58 -32.81 53.75 C-26.79 56.03 -21.71 56.2 -15.72 53.8 C-11.2 51.31 -9.46 47.43 -7.81 42.75 C-6.3 34.15 -6.49 25.98 -10.06 17.94 C-14.29 12.59 -14.29 12.59 -20.44 10.3 C-27.89 10.01 -31.77 11.71 -37.06 17 Z " fill="#2D2D2D" transform="translate(853.8125,457.25)"/>
<path d="M0 0 C0.99 0.33 1.98 0.66 3 1 C16.12 14.7 13.14 34.85 13.06 52.38 C13.06 54.29 13.05 56.2 13.05 58.11 C13.04 62.74 13.02 67.37 13 72 C7.83 74.58 0.51 72.94 -5 72 C-5 69.69 -5 67.38 -5 65 C-7.71 66.6 -10.31 68.23 -12.88 70.06 C-20.03 74.5 -27.77 75.19 -35.88 73.35 C-42.23 71.33 -46.67 68.9 -50 63 C-53 56.42 -53.88 50.03 -52 43 C-49.02 36.35 -44.81 32 -38 29.31 C-33.25 27.6 -28.75 26.87 -23.7 26.9 C-22.72 26.91 -21.75 26.91 -20.74 26.91 C-19.73 26.92 -18.73 26.93 -17.69 26.94 C-16.66 26.94 -15.63 26.95 -14.58 26.95 C-12.05 26.96 -9.53 26.98 -7 27 C-7.59 25.37 -8.2 23.75 -8.81 22.13 C-9.14 21.23 -9.48 20.33 -9.83 19.4 C-10.91 16.7 -10.91 16.7 -14.06 14.88 C-22.66 12.31 -31.75 13.96 -40 17 C-40.99 17.66 -41.98 18.32 -43 19 C-45.26 15.41 -45.21 12.43 -45.12 8.25 C-45.11 7.08 -45.09 5.91 -45.07 4.7 C-45.05 3.81 -45.02 2.92 -45 2 C-30.53 -4.01 -14.92 -5.18 0 0 Z M-30 42.75 C-32.51 45.58 -32.92 47.24 -33 51 C-31.95 54.85 -31.39 55.74 -28 58 C-22.25 58.8 -16.7 59.07 -11.81 55.62 C-8.52 52.67 -8.52 52.67 -7.9 48.62 C-7.91 47.71 -7.93 46.81 -7.94 45.88 C-7.95 44.96 -7.96 44.05 -7.96 43.12 C-7.98 42.42 -7.99 41.72 -8 41 C-15.97 38.59 -22.65 38.46 -30 42.75 Z " fill="#C11C25" transform="translate(621,455)"/>
<path d="M0 0 C7.87 5.47 12.58 11.85 14.74 21.21 C15.81 27.5 16.32 33.63 16 40 C15 41 15 41 13.06 41.12 C12.21 41.12 11.36 41.12 10.48 41.11 C9.04 41.11 9.04 41.11 7.57 41.11 C6.52 41.11 5.48 41.1 4.4 41.1 C3.34 41.1 2.27 41.09 1.18 41.09 C-2.24 41.09 -5.65 41.08 -9.06 41.06 C-11.37 41.06 -13.68 41.05 -15.99 41.05 C-21.66 41.04 -27.33 41.02 -33 41 C-32.56 42.45 -32.11 43.9 -31.65 45.35 C-31.27 46.56 -31.27 46.56 -30.89 47.79 C-29.29 51.76 -26.46 53.31 -22.74 55.07 C-12.52 58.53 -1.82 55.22 8 52 C9.33 51.65 10.66 51.31 12 51 C12.22 56.18 12.18 60.93 11 66 C8.09 69 4.99 69.95 1 71 C0.27 71.24 -0.46 71.47 -1.21 71.72 C-12.85 75 -25.22 73.37 -35.97 68.02 C-44.44 62.72 -50.2 54.76 -52.49 45.15 C-54.47 32.87 -53.5 20.03 -46.25 9.56 C-35.02 -3.74 -15.58 -9.32 0 0 Z M-31 18 C-33.46 21.7 -33 23.01 -33 28 C-23.1 28 -13.2 28 -3 28 C-3.33 25.36 -3.66 22.72 -4 20 C-4.66 20 -5.32 20 -6 20 C-6.06 19.22 -6.12 18.43 -6.19 17.62 C-6.46 16.76 -6.72 15.89 -7 15 C-9.36 13.74 -9.36 13.74 -12 13 C-12.99 12.34 -13.98 11.68 -15 11 C-21.78 10.25 -26.66 12.89 -31 18 Z " fill="#C11C24" transform="translate(545,456)"/>
<path d="M0 0 C1.26 4.2 1.12 8.47 1.06 12.81 C1.06 13.51 1.05 14.2 1.05 14.91 C1.04 16.61 1.02 18.3 1 20 C0.31 19.95 -0.38 19.91 -1.09 19.86 C-7.92 19.6 -13.15 20.31 -19 24 C-22.31 27.41 -23.11 30.72 -23.21 35.38 C-23.23 36.26 -23.25 37.14 -23.27 38.05 C-23.29 39.47 -23.29 39.47 -23.32 40.92 C-23.34 41.89 -23.36 42.86 -23.38 43.86 C-23.44 46.97 -23.5 50.08 -23.56 53.19 C-23.61 55.29 -23.65 57.4 -23.69 59.51 C-23.8 64.67 -23.9 69.84 -24 75 C-26.71 75.9 -28.24 76.12 -31.01 76.1 C-32.15 76.09 -32.15 76.09 -33.31 76.09 C-34.49 76.08 -34.49 76.08 -35.69 76.06 C-36.48 76.06 -37.28 76.05 -38.1 76.05 C-40.07 76.04 -42.03 76.02 -44 76 C-44.94 72.02 -45.13 68.31 -45.13 64.22 C-45.13 63.56 -45.13 62.9 -45.13 62.22 C-45.14 60.05 -45.14 57.88 -45.13 55.71 C-45.13 54.19 -45.13 52.68 -45.14 51.17 C-45.14 48.01 -45.14 44.84 -45.13 41.68 C-45.12 37.62 -45.13 33.56 -45.13 29.5 C-45.14 26.38 -45.14 23.26 -45.13 20.14 C-45.13 18.65 -45.13 17.15 -45.14 15.65 C-45.14 13.56 -45.13 11.48 -45.13 9.39 C-45.13 8.2 -45.13 7.01 -45.13 5.79 C-45 3 -45 3 -44 1 C-37.73 1 -31.46 1 -25 1 C-24.34 2.65 -23.68 4.3 -23 6 C-21.95 5.22 -20.9 4.43 -19.81 3.62 C-14.79 0.45 -5.63 -2.82 0 0 Z " fill="#C01C24" transform="translate(690,452)"/>
<path d="M0 0 C0.8 0.7 1.61 1.4 2.44 2.12 C1.37 5.34 0.55 6.21 -1.94 8.38 C-2.54 8.92 -3.15 9.46 -3.77 10.02 C-4.36 10.38 -4.95 10.75 -5.56 11.12 C-8.56 10.12 -8.56 10.12 -10.38 8.25 C-12.89 5.81 -15.39 4.58 -18.56 3.12 C-20.56 2.12 -20.56 2.12 -22.5 0.75 C-26.96 -1.61 -31.68 -2.67 -36.56 -3.88 C-36.74 -3.04 -36.93 -2.21 -37.11 -1.36 C-37.36 -0.27 -37.62 0.82 -37.88 1.94 C-38.12 3.02 -38.36 4.1 -38.61 5.21 C-39.56 8.12 -39.56 8.12 -42.56 11.12 C-43.22 6.5 -43.88 1.88 -44.56 -2.88 C-54.27 -3.61 -62.43 0.07 -70.56 5.12 C-69.57 8.35 -68.5 11.25 -66.94 14.25 C-65.56 17.12 -65.56 17.12 -65.56 21.12 C-69.68 19.31 -72.44 16.57 -75.66 13.49 C-76.29 13.04 -76.92 12.59 -77.56 12.12 C-80.61 12.77 -80.61 12.77 -81.56 14.82 C-81.89 15.58 -82.22 16.34 -82.56 17.12 C-83.04 18.04 -83.51 18.95 -84 19.89 C-86.75 25.24 -89.23 30.25 -90.56 36.12 C-87.59 36.78 -84.62 37.44 -81.56 38.12 C-81.56 39.44 -81.56 40.76 -81.56 42.12 C-85.19 42.78 -88.82 43.44 -92.56 44.12 C-92.1 56.66 -91.48 68.45 -84.45 79.29 C-83.56 81.12 -83.56 81.12 -84.56 84.12 C-95.19 75.53 -99.9 62.32 -101.56 49.12 C-102.88 33.39 -98.78 18.08 -88.89 5.63 C-78.37 -6.78 -65.74 -13.48 -49.75 -16.62 C-30.91 -18.1 -14.46 -11.96 0 0 Z " fill="#322C2C" transform="translate(316.5625,452.875)"/>
<path d="M0 0 C0.99 1.98 0.99 1.98 2 4 C1.29 4.4 0.59 4.81 -0.14 5.22 C-3.2 7.12 -5.97 9.22 -8.81 11.44 C-9.96 12.33 -11.11 13.22 -12.26 14.11 C-12.87 14.58 -13.47 15.05 -14.1 15.53 C-17.42 18.09 -20.77 20.61 -24.12 23.12 C-25.14 23.89 -25.14 23.89 -26.17 24.67 C-29.17 26.93 -32.18 29.12 -35.29 31.22 C-40.85 34.99 -44.05 38 -46.96 44.08 C-48.89 47.64 -51.72 48.52 -55.31 49.88 C-59.33 50.06 -62.48 48.9 -66 47 C-68.94 44.28 -69.87 42.49 -70.94 38.62 C-71.01 34.21 -70.23 31.81 -68 28 C-65.43 25.55 -63.58 23.97 -59.91 24.04 C-59.14 24.11 -58.36 24.18 -57.56 24.25 C-52.04 24.44 -48.54 22.49 -43.82 19.77 C-36.28 15.46 -28.38 11.93 -20.49 8.33 C-18.69 7.51 -16.89 6.68 -15.09 5.86 C-14.03 5.38 -12.98 4.9 -11.9 4.41 C-8.98 3.06 -8.98 3.06 -6.37 1.32 C-4 0 -4 0 0 0 Z " fill="#312C2C" transform="translate(332,466)"/>
<path d="M0 0 C0.33 0.66 0.66 1.32 1 2 C2.65 2 4.3 2 6 2 C6.03 5.56 6.05 9.12 6.06 12.69 C6.07 13.69 6.08 14.7 6.09 15.74 C6.09 17.2 6.09 17.2 6.1 18.7 C6.11 20.04 6.11 20.04 6.11 21.41 C6 24.04 5.58 26.44 5 29 C3.02 28.67 1.04 28.34 -1 28 C-1.33 24.37 -1.66 20.74 -2 17 C-3.32 19.31 -4.64 21.62 -6 24 C-8.31 23.88 -8.31 23.88 -11 23 C-12.81 19.94 -12.81 19.94 -14 17 C-14.33 18.32 -14.66 19.64 -15 21 C-14.34 21.33 -13.68 21.66 -13 22 C-13.66 22 -14.32 22 -15 22 C-15 23.98 -15 25.96 -15 28 C-17.67 29.33 -19.17 28.67 -22 28 C-21.99 27.16 -21.98 26.31 -21.96 25.45 C-21.96 24.35 -21.95 23.25 -21.94 22.12 C-21.93 21.03 -21.91 19.94 -21.9 18.82 C-21.8 16.05 -21.8 16.05 -23 14 C-22.88 11.94 -22.88 11.94 -22.56 9.56 C-22.23 6.98 -22 4.61 -22 2 C-19.36 2 -16.72 2 -14 2 C-12.02 5.96 -10.04 9.92 -8 14 C-6.02 10.04 -4.04 6.08 -2 2 C-1.34 2 -0.68 2 0 2 C0 1.34 0 0.68 0 0 Z " fill="#2F2928" transform="translate(527,556)"/>
<path d="M0 0 C2.23 3.58 2.24 6.52 2.23 10.7 C2.23 11.36 2.23 12.02 2.23 12.71 C2.23 14.89 2.21 17.08 2.2 19.27 C2.19 20.78 2.19 22.3 2.19 23.82 C2.18 27.81 2.16 31.81 2.14 35.8 C2.12 39.87 2.11 43.95 2.1 48.02 C2.08 56.02 2.04 64.01 2 72 C3.32 72 4.64 72 6 72 C6.33 70.68 6.66 69.36 7 68 C8.09 68.54 9.19 69.07 10.31 69.62 C11.53 70.08 12.75 70.53 14 71 C15.49 70.01 15.49 70.01 17 69 C17.44 66.17 17.44 66.17 17.34 62.81 C17.34 61.5 17.34 60.2 17.34 58.86 C17.32 57.44 17.31 56.01 17.29 54.59 C17.29 53.13 17.28 51.68 17.28 50.22 C17.27 46.39 17.24 42.56 17.21 38.73 C17.18 34.82 17.16 30.92 17.15 27.01 C17.11 19.34 17.06 11.67 17 4 C17.33 4 17.66 4 18 4 C18 4.75 18.01 5.51 18.01 6.29 C18.05 13.44 18.11 20.58 18.18 27.73 C18.22 31.41 18.26 35.08 18.27 38.76 C18.29 42.31 18.32 45.86 18.37 49.42 C18.39 51.42 18.39 53.41 18.39 55.41 C18.52 63.17 19.63 69.03 23 76 C23.33 76.99 23.66 77.98 24 79 C26.2 80.17 26.2 80.17 29 81 C30.03 81.35 31.06 81.7 32.12 82.06 C37.06 83.26 41.94 83.65 47 84 C47 84.33 47 84.66 47 85 C30.61 86.09 30.61 86.09 23.6 80.61 C22 79 22 79 20 76 C19.67 76.99 19.34 77.98 19 79 C18.17 79.31 17.35 79.62 16.5 79.94 C15.67 80.29 14.85 80.64 14 81 C13.11 83.04 13.11 83.04 13 85 C13.66 85.33 14.32 85.66 15 86 C14.01 86.99 14.01 86.99 13 88 C12.5 85.52 12.5 85.52 12 83 C10.51 83.5 10.51 83.5 9 84 C8.92 82.89 8.84 81.77 8.75 80.62 C8.42 76.94 8.42 76.94 5.94 75.56 C4.98 75.28 4.98 75.28 4 75 C4.3 81.03 6.97 84.75 11 89 C16.99 94.18 23.33 96.37 31 98 C31 98.33 31 98.66 31 99 C23.18 99.9 17.53 97.21 11 93 C4.25 87.35 0.45 79.96 -0.35 71.21 C-0.51 66.68 -0.45 62.15 -0.39 57.62 C-0.38 55.95 -0.38 54.28 -0.37 52.62 C-0.36 48.26 -0.32 43.9 -0.27 39.55 C-0.23 35.09 -0.22 30.63 -0.2 26.17 C-0.15 17.45 -0.08 8.72 0 0 Z " fill="#232020" transform="translate(703,428)"/>
<path d="M0 0 C2.54 0.08 5.07 0.16 7.69 0.25 C8.48 0.27 9.27 0.28 10.08 0.3 C14.88 0.53 17.54 1.39 21 5 C22.37 8.94 22.21 10.51 20.56 14.38 C20.05 15.24 19.53 16.11 19 17 C18.34 17 17.68 17 17 17 C18.98 20.3 20.96 23.6 23 27 C17.81 27.62 17.81 27.62 15 27 C13.32 25.33 12.26 23.69 11.11 21.63 C10.02 19.67 10.02 19.67 7 19 C7.02 20.13 7.04 21.27 7.06 22.44 C7 26 7 26 6 27 C4.02 27 2.04 27 0 27 C0 18.09 0 9.18 0 0 Z M7 6 C6.67 8.31 6.34 10.62 6 13 C8.64 13 11.28 13 14 13 C14.33 11.35 14.66 9.7 15 8 C11.09 6.53 11.09 6.53 7 6 Z " fill="#292524" transform="translate(575,557)"/>
<path d="M0 0 C3.81 -0.12 3.81 -0.12 7.69 -0.25 C8.87 -0.3 8.87 -0.3 10.08 -0.36 C13.85 -0.42 15.65 -0.21 18.96 1.82 C21.84 4.9 22 6.8 22 11 C21.48 12.56 20.91 14.1 20.31 15.62 C19.39 17.84 19.39 17.84 19 20 C20.62 23.09 20.62 23.09 23 25 C20.92 26.26 19.45 26.99 17 27.06 C14.18 25.56 13.45 23.37 12.02 20.59 C11.07 18.78 11.07 18.78 8.75 18.06 C8.17 18.04 7.6 18.02 7 18 C7 20.64 7 23.28 7 26 C4.69 26 2.38 26 0 26 C0 17.42 0 8.84 0 0 Z M7 5 C7 7.64 7 10.28 7 13 C10.46 12.5 10.46 12.5 14 12 C14.33 10.35 14.66 8.7 15 7 C12.09 5.74 10.2 5 7 5 Z M17 16 C18 18 18 18 18 18 Z " fill="#2D2525" transform="translate(459,558)"/>
<path d="M0 0 C6.6 0 13.2 0 20 0 C21 2 21 2 20 6 C16.04 6 12.08 6 8 6 C8.33 6.99 8.66 7.98 9 9 C12.33 10.11 15.53 10.54 19 11 C19.33 12.32 19.66 13.64 20 15 C17.57 16.22 15.58 16.32 12.88 16.56 C11.96 16.65 11.05 16.73 10.12 16.82 C9.42 16.88 8.72 16.94 8 17 C7.67 18.32 7.34 19.64 7 21 C11.62 21 16.24 21 21 21 C21 22.65 21 24.3 21 26 C14.07 26 7.14 26 0 26 C0 17.42 0 8.84 0 0 Z " fill="#2D2828" transform="translate(636,558)"/>
<path d="M0 0 C0.83 0.01 1.67 0.01 2.52 0.02 C3.42 0.02 4.32 0.02 5.25 0.03 C6.67 0.04 6.67 0.04 8.11 0.05 C9.06 0.06 10.01 0.06 10.99 0.06 C13.34 0.08 15.7 0.09 18.05 0.11 C18.05 2.09 18.05 4.07 18.05 6.11 C13.76 6.11 9.47 6.11 5.05 6.11 C5.05 7.76 5.05 9.41 5.05 11.11 C10.5 10.62 10.5 10.62 16.05 10.11 C16.38 11.76 16.71 13.41 17.05 15.11 C16.05 16.11 16.05 16.11 13.55 16.21 C12.54 16.2 11.53 16.19 10.49 16.18 C9.48 16.17 8.46 16.16 7.42 16.15 C6.25 16.13 6.25 16.13 5.05 16.11 C5.05 17.76 5.05 19.41 5.05 21.11 C9.34 21.11 13.63 21.11 18.05 21.11 C18.05 22.76 18.05 24.41 18.05 26.11 C15.47 26.31 12.88 26.49 10.3 26.68 C9.57 26.73 8.84 26.79 8.09 26.85 C4.5 27.09 1.5 27.11 -1.95 26.11 C-2.15 21.97 -2.33 17.82 -2.51 13.68 C-2.57 12.49 -2.62 11.31 -2.68 10.09 C-2.73 8.96 -2.78 7.84 -2.83 6.68 C-2.88 5.64 -2.92 4.6 -2.97 3.52 C-2.94 0.57 -2.94 0.17 0 0 Z " fill="#2A2929" transform="translate(810.949462890625,557.886474609375)"/>
<path d="M0 0 C3.34 0.17 3.34 0.17 7 1 C8.6 3.3 8.6 3.3 9.62 6.31 C10.21 7.93 10.21 7.93 10.8 9.57 C11.2 10.7 11.59 11.84 12 13 C12.92 15.21 13.86 17.42 14.81 19.62 C17 24.75 17 24.75 17 27 C14.69 27 12.38 27 10 27 C9.34 25.35 8.68 23.7 8 22 C5.03 22 2.06 22 -1 22 C-1.99 24.48 -1.99 24.48 -3 27 C-5.31 27 -7.62 27 -10 27 C-7.59 17.64 -3.76 8.87 0 0 Z " fill="#2B2929" transform="translate(551,557)"/>
<path d="M0 0 C1.98 0 3.96 0 6 0 C6.33 2.64 6.66 5.28 7 8 C7.66 8 8.32 8 9 8 C10.08 6.7 11.11 5.36 12.12 4 C15.34 0.16 15.34 0.16 18.24 -0.53 C20.44 -0.5 20.44 -0.5 24 0 C22.73 2.04 21.39 4.04 20 6 C19.34 6 18.68 6 18 6 C16.56 8.29 15.97 9.59 16.19 12.32 C17.2 15.66 18.81 17.6 21.06 20.25 C25 24.93 25 24.93 25 26 C19.88 26.71 19.88 26.71 17 26 C15.08 24.06 13.74 22.08 12.32 19.75 C11.67 18.88 11.67 18.88 11 18 C10.01 18 9.02 18 8 18 C7.78 19.7 7.78 19.7 7.56 21.44 C7 25 7 25 6 26 C4.02 26 2.04 26 0 26 C0 17.42 0 8.84 0 0 Z " fill="#292322" transform="translate(605,558)"/>
<path d="M0 0 C2.31 0.33 4.62 0.66 7 1 C10.3 9.58 13.6 18.16 17 27 C14.69 27 12.38 27 10 27 C9.71 26.36 9.42 25.72 9.12 25.06 C8.17 22.85 8.17 22.85 6 22 C3.67 21.96 1.33 21.96 -1 22 C-1.99 24.48 -1.99 24.48 -3 27 C-5.31 27 -7.62 27 -10 27 C-8.27 20.69 -6.16 14.56 -3.88 8.44 C-3.61 7.72 -3.34 7.01 -3.07 6.27 C-1.13 1.13 -1.13 1.13 0 0 Z " fill="#272221" transform="translate(435,557)"/>
<path d="M0 0 C3.86 1.5 4.05 2.34 5.7 6.01 C6.48 8.01 7.25 10.03 7.99 12.05 C8.38 13.06 8.78 14.07 9.18 15.12 C10.72 19.12 12.22 23.05 13.18 27.24 C9.86 27.55 9.86 27.55 6.18 27.24 C4.36 24.8 4.36 24.8 3.18 22.24 C2.52 21.91 1.86 21.58 1.18 21.24 C0.85 22.23 0.52 23.22 0.18 24.24 C0.18 23.25 0.18 22.26 0.18 21.24 C-2.23 21.35 -2.23 21.35 -4.82 22.24 C-5.3 23.08 -5.77 23.93 -6.26 24.8 C-6.78 25.61 -7.29 26.41 -7.82 27.24 C-11.01 27.55 -11.01 27.55 -13.82 27.24 C-12.84 24.23 -11.84 21.23 -10.82 18.24 C-10.48 17.21 -10.48 17.21 -10.13 16.16 C-9.35 13.85 -8.55 11.54 -7.76 9.24 C-7.38 8.09 -7.38 8.09 -6.98 6.92 C-4.72 0.4 -4.72 0.4 0 0 Z " fill="#262525" transform="translate(759.82421875,556.76171875)"/>
<path d="M0 0 C3.81 -0.12 3.81 -0.12 7.69 -0.25 C8.87 -0.3 8.87 -0.3 10.08 -0.36 C13.82 -0.42 15.66 -0.2 18.95 1.77 C21.58 4.63 21.94 6.28 22.21 10.03 C21.87 13.23 20.27 14.86 18 17 C15.59 18.2 14.05 18.1 11.38 18.06 C10.15 18.05 10.15 18.05 8.9 18.04 C8.27 18.02 7.65 18.01 7 18 C7 20.64 7 23.28 7 26 C4.69 26 2.38 26 0 26 C0 17.42 0 8.84 0 0 Z M7 5 C7 7.64 7 10.28 7 13 C9.92 13.17 9.92 13.17 13 13 C13.66 12.34 14.32 11.68 15 11 C14.68 8.4 14.68 8.4 14 6 C11.69 5.67 9.38 5.34 7 5 Z " fill="#272525" transform="translate(692,558)"/>
<path d="M0 0 C3.06 2.44 3.06 2.44 5 5 C5 5.66 5 6.32 5 7 C2.81 8.19 2.81 8.19 0 9 C-1.68 8.03 -3.35 7.03 -5 6 C-7.68 5.99 -7.68 5.99 -10 7 C-12.33 10.49 -12.42 11.9 -12 16 C-10.62 18.34 -10.62 18.34 -9 20 C-4.94 19.53 -1.53 19.12 2 17 C2.99 17.66 3.98 18.32 5 19 C4.88 20.75 4.88 20.75 4 23 C0.84 25.71 -1.31 26.9 -5.44 27.5 C-10.55 26.78 -14.16 25.27 -17.4 21.27 C-19.65 17.48 -20.31 14.67 -19.5 10.31 C-18.09 5.54 -16.09 2.31 -11.81 -0.38 C-7.71 -1.29 -4.05 -1.16 0 0 Z " fill="#272727" transform="translate(797,558)"/>
<path d="M0 0 C3.88 2.09 6.49 3.77 8 8 C5.75 9.19 5.75 9.19 3 10 C1.66 9.01 0.32 8.01 -1 7 C-4.67 6.75 -4.67 6.75 -8 7 C-9.38 10.83 -10.12 13.33 -9.38 17.38 C-8.28 20.07 -8.28 20.07 -6.19 20.94 C-2.01 21.06 0.5 20.33 4 18 C5.32 18.99 6.64 19.98 8 21 C6.99 23.93 6 25 3.44 26.81 C-1.05 28.36 -4.46 28.44 -9 27 C-12.86 24.59 -15.55 22.36 -17 18 C-17.4 12.75 -16.87 9.45 -14 5 C-9.56 0.9 -6.06 -0.59 0 0 Z " fill="#2E2626" transform="translate(412,557)"/>
<path d="M0 0 C7.92 0.33 15.84 0.66 24 1 C23.67 2.98 23.34 4.96 23 7 C21.02 7 19.04 7 17 7 C17 7.66 17 8.32 17 9 C16.01 9 15.02 9 14 9 C14.08 9.63 14.17 10.26 14.25 10.91 C14.92 16.53 14.93 21.41 14 27 C12.02 27 10.04 27 8 27 C8 20.4 8 13.8 8 7 C5.36 7 2.72 7 0 7 C-1 4 -1 4 0 0 Z " fill="#272223" transform="translate(663,557)"/>
<path d="M0 0 C2.64 0 5.28 0 8 0 C8 6.93 8 13.86 8 21 C16.09 20.42 16.09 20.42 20 19 C20.33 21.31 20.66 23.62 21 26 C18.63 26.2 16.25 26.38 13.88 26.56 C13.21 26.62 12.54 26.67 11.86 26.73 C7.55 27.05 4.37 26.73 0 26 C0 17.42 0 8.84 0 0 Z " fill="#292827" transform="translate(720,558)"/>
<path d="M0 0 C2.31 0.33 4.62 0.66 7 1 C9.12 7.62 9.12 7.62 8 11 C7.34 11 6.68 11 6 11 C6.21 11.95 6.41 12.9 6.62 13.88 C6.75 14.91 6.87 15.94 7 17 C5 19 5 19 3.05 19.2 C1.04 19.13 -0.98 19.07 -3 19 C-4.34 16.79 -5.03 15.46 -4.86 12.85 C-3.72 8.23 -2.36 4.19 0 0 Z " fill="#2D2626" transform="translate(435,557)"/>
<path d="M0 0 C2.02 3.31 2.22 6.18 2 10 C1.01 9.01 0.02 8.02 -1 7 C-1.58 7.5 -2.15 7.99 -2.75 8.5 C-5 10 -5 10 -9 10 C-8.34 10.66 -7.68 11.32 -7 12 C-7.38 15.12 -7.38 15.12 -8 18 C-6.35 18 -4.7 18 -3 18 C-3 18.33 -3 18.66 -3 19 C-4.98 19 -6.96 19 -9 19 C-8.94 20.18 -8.94 20.18 -8.88 21.38 C-9 24 -9 24 -11 26 C-14.12 26.12 -14.12 26.12 -17 26 C-16.02 22.99 -15.01 20 -14 17 C-13.65 15.97 -13.65 15.97 -13.3 14.92 C-12.52 12.61 -11.73 10.31 -10.94 8 C-10.55 6.85 -10.55 6.85 -10.16 5.68 C-7.97 -0.62 -6.65 -1.94 0 0 Z " fill="#212020" transform="translate(763,558)"/>
<path d="M0 0 C0.33 0 0.66 0 1 0 C1 19.8 1 39.6 1 60 C5.95 60 10.9 60 16 60 C16 50.1 16 40.2 16 30 C16.66 30 17.32 30 18 30 C18.17 34.4 18.33 38.79 18.48 43.19 C18.54 44.69 18.59 46.18 18.65 47.68 C18.73 49.83 18.81 51.97 18.88 54.12 C18.93 55.41 18.97 56.71 19.02 58.04 C19 61 19 61 18 62 C15.73 62.26 13.46 62.46 11.19 62.62 C9.32 62.77 9.32 62.77 7.42 62.91 C4 63 4 63 0 62 C0 41.54 0 21.08 0 0 Z " fill="#131213" transform="translate(795,489)"/>
<path d="M0 0 C4.41 -0.35 4.41 -0.35 7 1 C9.28 4.76 10.55 8.86 12 13 C12.92 15.21 13.86 17.42 14.81 19.62 C17 24.75 17 24.75 17 27 C15.02 27 13.04 27 11 27 C11 26.34 11 25.68 11 25 C11.66 24.67 12.32 24.34 13 24 C12.78 23.37 12.57 22.75 12.34 22.1 C12.07 21.28 11.79 20.47 11.5 19.62 C11.22 18.81 10.94 18 10.66 17.16 C10 15 10 15 10 13 C9.34 13 8.68 13 8 13 C7.67 14.32 7.34 15.64 7 17 C6.32 15.42 5.66 13.84 5 12.25 C4.63 11.37 4.26 10.49 3.88 9.58 C3 7 3 7 3 3 C2.34 3 1.68 3 1 3 C0.34 6.3 -0.32 9.6 -1 13 C-2.32 13.33 -3.64 13.66 -5 14 C-3.46 9.28 -1.92 4.58 0 0 Z " fill="#24201F" transform="translate(551,557)"/>
<path d="M0 0 C0.33 0 0.66 0 1 0 C1 0.75 1.01 1.51 1.01 2.29 C1.05 9.44 1.11 16.58 1.18 23.73 C1.22 27.41 1.26 31.08 1.27 34.76 C1.29 38.31 1.32 41.86 1.37 45.42 C1.39 47.42 1.39 49.41 1.39 51.41 C1.52 59.17 2.63 65.03 6 72 C6.33 72.99 6.66 73.98 7 75 C9.2 76.17 9.2 76.17 12 77 C13.03 77.35 14.06 77.7 15.12 78.06 C20.06 79.26 24.94 79.65 30 80 C30 80.33 30 80.66 30 81 C12.86 82.14 12.86 82.14 6.93 76.99 C0.47 70.33 -0.57 62.95 -0.57 53.96 C-0.54 52.57 -0.51 51.19 -0.49 49.8 C-0.48 48.36 -0.47 46.92 -0.47 45.48 C-0.45 41.71 -0.4 37.95 -0.34 34.18 C-0.29 30.33 -0.27 26.47 -0.24 22.62 C-0.19 15.08 -0.11 7.54 0 0 Z " fill="#0E0D0E" transform="translate(720,432)"/>
<path d="M0 0 C4.62 0 9.24 0 14 0 C14 0.66 14 1.32 14 2 C10.04 2 6.08 2 2 2 C2.66 3.32 3.32 4.64 4 6 C7.33 7.11 10.53 7.54 14 8 C14.33 9.32 14.66 10.64 15 12 C10.38 12 5.76 12 1 12 C1 13.98 1 15.96 1 18 C0.67 18 0.34 18 0 18 C0 12.06 0 6.12 0 0 Z " fill="#201C1B" transform="translate(641,561)"/>
<path d="M0 0 C5.94 0.33 11.88 0.66 18 1 C18 8 18 8 16 11 C16 8.36 16 5.72 16 3 C11.71 3 7.42 3 3 3 C3.1 3.99 3.19 4.97 3.29 5.99 C3.4 7.27 3.51 8.55 3.62 9.88 C3.74 11.15 3.86 12.43 3.98 13.74 C3.98 14.82 3.99 15.89 4 17 C3.34 17.66 2.68 18.32 2 19 C1.69 21.73 1.49 24.38 1.38 27.12 C1.34 27.88 1.3 28.63 1.26 29.41 C1.16 31.27 1.08 33.14 1 35 C0.67 35 0.34 35 0 35 C-0.17 30.34 -0.33 25.67 -0.48 21.01 C-0.54 19.42 -0.59 17.84 -0.65 16.25 C-0.73 13.97 -0.81 11.69 -0.88 9.41 C-0.91 8.7 -0.93 7.99 -0.96 7.26 C-1.11 2.23 -1.11 2.23 0 0 Z " fill="#161617" transform="translate(795,453)"/>
<path d="M0 0 C2 -0.04 4 -0.04 6 0 C7.57 1.57 7.13 3.12 7.13 5.3 C7.13 6.17 7.14 7.05 7.14 7.95 C7.13 8.88 7.13 9.8 7.12 10.75 C7.13 11.66 7.13 12.57 7.14 13.5 C7.14 14.38 7.13 15.26 7.13 16.17 C7.13 16.98 7.13 17.78 7.13 18.61 C6.99 21.15 6.55 23.52 6 26 C4.35 25.67 2.7 25.34 1 25 C1 19.72 1 14.44 1 9 C1.99 9 2.98 9 4 9 C4.33 6.36 4.66 3.72 5 1 C3.35 1 1.7 1 0 1 C0 0.67 0 0.34 0 0 Z " fill="#221E1F" transform="translate(526,559)"/>
<path d="M0 0 C0.33 0 0.66 0 1 0 C1 7.59 1 15.18 1 23 C1.66 23 2.32 23 3 23 C3 15.74 3 8.48 3 1 C5.31 1 7.62 1 10 1 C10.33 1.66 10.66 2.32 11 3 C8.69 3 6.38 3 4 3 C4 5.97 4 8.94 4 12 C4.78 11.94 5.57 11.88 6.38 11.81 C7.24 11.87 8.11 11.94 9 12 C9.99 13.49 9.99 13.49 11 15 C8.69 15 6.38 15 4 15 C4 17.97 4 20.94 4 24 C2.02 24 0.04 24 -2 24 C-2.03 22.52 -2.05 21.04 -2.06 19.56 C-2.07 18.74 -2.09 17.92 -2.1 17.07 C-2 15 -2 15 -1 14 C-0.76 11.65 -0.59 9.29 -0.44 6.94 C-0.35 5.65 -0.27 4.36 -0.18 3.03 C-0.12 2.03 -0.06 1.03 0 0 Z " fill="#151313" transform="translate(461,560)"/>
<path d="M0 0 C0.33 0.66 0.66 1.32 1 2 C1.66 2 2.32 2 3 2 C4.6 6.22 5.34 8.15 3.62 12.44 C3.09 13.28 2.55 14.13 2 15 C1.67 14.01 1.34 13.02 1 12 C-0.98 12.33 -2.96 12.66 -5 13 C-4.71 11.01 -4.41 9.03 -4.12 7.04 C-3.86 4.8 -3.86 4.8 -5 2 C-3.35 1.34 -1.7 0.68 0 0 Z " fill="#2E2D2D" transform="translate(759,566)"/>
<path d="M0 0 C5.93 -0.37 12.03 -0.67 17 3 C23.67 11.35 22.5 21.96 22 32 C21.67 32 21.34 32 21 32 C20.89 30.85 20.78 29.71 20.67 28.53 C20.51 27 20.35 25.47 20.19 23.94 C20.12 23.19 20.05 22.43 19.97 21.66 C19.27 15.19 17.93 10.12 13.44 5.19 C9.5 2.16 4.81 1.64 0 1 C0 0.67 0 0.34 0 0 Z " fill="#181818" transform="translate(826,466)"/>
<path d="M0 0 C1.99 1.99 2.56 3.16 3.62 5.69 C7.13 12.75 12.42 16.66 19.75 19.31 C20.65 19.6 21.55 19.88 22.48 20.18 C24.8 20.94 26.85 21.85 29 23 C21.2 23.9 15.5 21.23 9 17 C5.16 13.52 2.05 9.79 0 5 C-0.12 2.25 -0.12 2.25 0 0 Z " fill="#1F1A1A" transform="translate(705,504)"/>
<path d="M0 0 C4.29 0 8.58 0 13 0 C12.34 1.32 11.68 2.64 11 4 C9.68 3.67 8.36 3.34 7 3 C7.66 2.67 8.32 2.34 9 2 C6.69 1.67 4.38 1.34 2 1 C2 8.26 2 15.52 2 23 C1.34 23 0.68 23 0 23 C0 15.41 0 7.82 0 0 Z " fill="#302C2C" transform="translate(462,560)"/>
<path d="M0 0 C0.66 0 1.32 0 2 0 C4.04 2.91 5 4.4 5 8 C3 10 3 10 1.05 10.2 C-0.96 10.13 -2.98 10.07 -5 10 C-6.06 8.19 -6.06 8.19 -7 6 C-6.67 5.01 -6.34 4.02 -6 3 C-5.34 3.66 -4.68 4.32 -4 5 C-3.01 4.67 -2.02 4.34 -1 4 C-0.27 1.98 -0.27 1.98 0 0 Z " fill="#3B3938" transform="translate(437,566)"/>
<path d="M0 0 C0.66 0 1.32 0 2 0 C5.43 8.43 5.43 8.43 5 13 C3.02 13 1.04 13 -1 13 C-1.22 11.59 -1.43 10.17 -1.62 8.75 C-1.74 7.96 -1.86 7.17 -1.98 6.36 C-2 3.68 -1.37 2.27 0 0 Z " fill="#3A3736" transform="translate(552,560)"/>
<path d="M0 0 C0.33 1.65 0.66 3.3 1 5 C-2.96 5 -6.92 5 -11 5 C-11 3.68 -11 2.36 -11 1 C-3.38 0 -3.38 0 0 0 Z " fill="#1B1A19" transform="translate(827,568)"/>
<path d="M0 0 C0.33 0.66 0.66 1.32 1 2 C2.32 2 3.64 2 5 2 C5.33 1.34 5.66 0.68 6 0 C6 5.61 6 11.22 6 17 C5.67 17 5.34 17 5 17 C4.67 13.37 4.34 9.74 4 6 C2.68 6.33 1.36 6.66 0 7 C-1.12 2.25 -1.12 2.25 0 0 Z " fill="#4B4242" transform="translate(521,567)"/>
<path d="M0 0 C0.66 0 1.32 0 2 0 C2.22 6.1 2.01 11.22 0 17 C-0.66 17 -1.32 17 -2 17 C-1.34 11.39 -0.68 5.78 0 0 Z " fill="#1B1C1C" transform="translate(864,490)"/>
<path d="M0 0 C0.66 0.33 1.32 0.66 2 1 C2 8.26 2 15.52 2 23 C1.01 23 0.02 23 -1 23 C-0.67 22.67 -0.34 22.34 0 22 C0.07 19.05 0.09 16.13 0.06 13.19 C0.06 12.37 0.05 11.55 0.05 10.7 C0.04 9.16 0.03 7.63 0.02 6.09 C0 4.06 0 2.03 0 0 Z " fill="#C53F44" transform="translate(178,483)"/>
<path d="M0 0 C0.99 0.66 1.98 1.32 3 2 C3.19 4.62 3.19 4.62 3 7 C1.35 7 -0.3 7 -2 7 C-2.12 4.62 -2.12 4.62 -2 2 C-1.34 1.34 -0.68 0.68 0 0 Z " fill="#D8D4D5" transform="translate(554,566)"/>
<path d="M0 0 C4.62 0 9.24 0 14 0 C14 7 14 7 12 10 C12 7.36 12 4.72 12 2 C8.04 1.67 4.08 1.34 0 1 C0 0.67 0 0.34 0 0 Z " fill="#141414" transform="translate(799,454)"/>
<path d="M0 0 C0.33 0.66 0.66 1.32 1 2 C1.66 2 2.32 2 3 2 C3.33 3.65 3.66 5.3 4 7 C2.02 7 0.04 7 -2 7 C-1.12 1.12 -1.12 1.12 0 0 Z " fill="#DDD9DB" transform="translate(759,566)"/>
<path d="M0 0 C0.66 0 1.32 0 2 0 C4 3 4 3 4 7 C2.35 7 0.7 7 -1 7 C-0.67 4.69 -0.34 2.38 0 0 Z " fill="#DED6DA" transform="translate(437,566)"/>
<path d="M0 0 C3.08 1.54 3.7 3.91 5 7 C4.67 7.99 4.34 8.98 4 10 C2.02 7.69 0.04 5.38 -2 3 C-1.34 2.67 -0.68 2.34 0 2 C0 1.34 0 0.68 0 0 Z " fill="#522F30" transform="translate(228,527)"/>
<path d="M0 0 C4.04 1.59 8.02 3.28 12 5 C12 5.33 12 5.66 12 6 C6.74 6.5 4.09 5.31 0 2 C0 1.34 0 0.68 0 0 Z " fill="#181918" transform="translate(816,521)"/>
<path d="M0 0 C3.12 4.17 3.63 5.07 3 10 C2.01 10.99 1.02 11.98 0 13 C0 8.71 0 4.42 0 0 Z " fill="#211D1D" transform="translate(274,451)"/>
<path d="M0 0 C0.33 0.99 0.66 1.98 1 3 C2.32 2.34 3.64 1.68 5 1 C5 2.32 5 3.64 5 5 C2.69 5 0.38 5 -2 5 C-1.34 3.35 -0.68 1.7 0 0 Z " fill="#1F1C1B" transform="translate(543,579)"/>
<path d="M0 0 C1.32 0 2.64 0 4 0 C3.67 1.65 3.34 3.3 3 5 C4.98 5 6.96 5 9 5 C9 5.33 9 5.66 9 6 C5.62 6.19 5.62 6.19 2 6 C0 3 0 3 0 0 Z " fill="#575555" transform="translate(754,568)"/>
<path d="M0 0 C-0.33 4.95 -0.66 9.9 -1 15 C-1.33 15 -1.66 15 -2 15 C-2 10.71 -2 6.42 -2 2 C-2.66 1.67 -3.32 1.34 -4 1 C-2 0 -2 0 0 0 Z " fill="#BC282F" transform="translate(557,507)"/>
<path d="M0 0 C4.46 0.99 4.46 0.99 9 2 C9 2.33 9 2.66 9 3 C6.36 3 3.72 3 1 3 C0.67 2.01 0.34 1.02 0 0 Z " fill="#131011" transform="translate(663,560)"/>
<path d="M0 0 C1.65 0 3.3 0 5 0 C5 0.33 5 0.66 5 1 C3.35 1 1.7 1 0 1 C0 0.67 0 0.34 0 0 Z " fill="#C03B40" transform="translate(273,560)"/>
<path d="M0 0 C0.66 0.66 1.32 1.32 2 2 C1.01 2.5 1.01 2.5 0 3 C0 2.01 0 1.02 0 0 Z " fill="#5D4F4E" transform="translate(442,581)"/>
<path d="M0 0 C1 4 1 4 1 4 Z " fill="#C63137" transform="translate(490,491)"/>
<path d="M0 0 C3 1 3 1 3 1 Z " fill="#C03B41" transform="translate(367,533)"/>
<path d="" fill="#C63239" transform="translate(0,0)"/>
<path d="M0 0 C2 1 2 1 2 1 Z " fill="#C34447" transform="translate(325,591)"/>
<path d="" fill="#C73A41" transform="translate(0,0)"/>
<path d="M0 0 C2 1 2 1 2 1 Z " fill="#4C4A49" transform="translate(826,577)"/>
<path d="M0 0 C2 1 2 1 2 1 Z " fill="#4E4949" transform="translate(788,577)"/>
<path d="M0 0 C2 1 2 1 2 1 Z " fill="#4F4544" transform="translate(644,577)"/>
<path d="M0 0 C2 1 2 1 2 1 Z " fill="#644A4B" transform="translate(405,576)"/>
<path d="M0 0 C2 1 2 1 2 1 Z " fill="#534946" transform="translate(647,575)"/>
<path d="" fill="#534342" transform="translate(0,0)"/>
<path d="" fill="#584847" transform="translate(0,0)"/>
<path d="M0 0 C2 1 2 1 2 1 Z " fill="#554644" transform="translate(597,568)"/>
<path d="" fill="#8C4E4D" transform="translate(0,0)"/>
<path d="" fill="#4F4B4A" transform="translate(0,0)"/>
<path d="M0 0 C2 1 2 1 2 1 Z " fill="#C03C41" transform="translate(304,552)"/>
<path d="" fill="#C63239" transform="translate(0,0)"/>
<path d="" fill="#C3343D" transform="translate(0,0)"/>
<path d="" fill="#464546" transform="translate(0,0)"/>
<path d="M0 0 C2 1 2 1 2 1 Z " fill="#534445" transform="translate(280,488)"/>
<path d="" fill="#C9343B" transform="translate(0,0)"/>
<path d="" fill="#CB333A" transform="translate(0,0)"/>
<path d="" fill="#CA3138" transform="translate(0,0)"/>
<path d="M0 0 C2 1 2 1 2 1 Z " fill="#574444" transform="translate(296,480)"/>
<path d="" fill="#464442" transform="translate(0,0)"/>
<path d="" fill="#C63339" transform="translate(0,0)"/>
<path d="M0 0 C2 1 2 1 2 1 Z " fill="#C8323A" transform="translate(603,470)"/>
<path d="" fill="#C83B3F" transform="translate(0,0)"/>
<path d="M0 0 C2 1 2 1 2 1 Z " fill="#454242" transform="translate(825,469)"/>
<path d="M0 0 C2 1 2 1 2 1 Z " fill="#C93037" transform="translate(593,469)"/>
<path d="M0 0 C2 1 2 1 2 1 Z " fill="#C23A40" transform="translate(626,457)"/>
<path d="M0 0 C2 1 2 1 2 1 Z " fill="#494845" transform="translate(833,450)"/>
<path d="M0 0 C2 1 2 1 2 1 Z " fill="#C9383D" transform="translate(437,447)"/>
<path d="M0 0 C2 1 2 1 2 1 Z " fill="#C53138" transform="translate(459,446)"/>
<path d="M0 0 C2 1 2 1 2 1 Z " fill="#8D3F3F" transform="translate(289,437)"/>
<path d="" fill="#878787" transform="translate(0,0)"/>
<path d="" fill="#C84347" transform="translate(0,0)"/>
<path d="" fill="#C53C44" transform="translate(0,0)"/>
<path d="" fill="#C14045" transform="translate(0,0)"/>
<path d="" fill="#4E4D4C" transform="translate(0,0)"/>
<path d="" fill="#4E4948" transform="translate(0,0)"/>
<path d="" fill="#4F494A" transform="translate(0,0)"/>
<path d="" fill="#504746" transform="translate(0,0)"/>
<path d="" fill="#574C4B" transform="translate(0,0)"/>
<path d="" fill="#5C504E" transform="translate(0,0)"/>
<path d="" fill="#5C4F4D" transform="translate(0,0)"/>
<path d="" fill="#C23C43" transform="translate(0,0)"/>
<path d="" fill="#C43B40" transform="translate(0,0)"/>
<path d="" fill="#C3373D" transform="translate(0,0)"/>
<path d="" fill="#574949" transform="translate(0,0)"/>
<path d="" fill="#C63D42" transform="translate(0,0)"/>
<path d="" fill="#5A4E4C" transform="translate(0,0)"/>
<path d="" fill="#C64849" transform="translate(0,0)"/>
<path d="" fill="#4E4A4A" transform="translate(0,0)"/>
<path d="" fill="#5A4A4A" transform="translate(0,0)"/>
<path d="" fill="#594D4D" transform="translate(0,0)"/>
<path d="" fill="#524644" transform="translate(0,0)"/>
<path d="" fill="#554C48" transform="translate(0,0)"/>
<path d="" fill="#5E4E4B" transform="translate(0,0)"/>
<path d="" fill="#C64349" transform="translate(0,0)"/>
<path d="" fill="#524444" transform="translate(0,0)"/>
<path d="" fill="#494546" transform="translate(0,0)"/>
<path d="" fill="#5F4C4C" transform="translate(0,0)"/>
<path d="" fill="#4A4744" transform="translate(0,0)"/>
<path d="" fill="#544944" transform="translate(0,0)"/>
<path d="" fill="#544747" transform="translate(0,0)"/>
<path d="" fill="#674C4A" transform="translate(0,0)"/>
<path d="" fill="#4F4D4D" transform="translate(0,0)"/>
<path d="" fill="#4D494A" transform="translate(0,0)"/>
<path d="" fill="#564446" transform="translate(0,0)"/>
<path d="" fill="#4E4343" transform="translate(0,0)"/>
<path d="" fill="#7D4B4B" transform="translate(0,0)"/>
<path d="" fill="#52453F" transform="translate(0,0)"/>
<path d="" fill="#514545" transform="translate(0,0)"/>
<path d="" fill="#554641" transform="translate(0,0)"/>
<path d="" fill="#4A4543" transform="translate(0,0)"/>
<path d="" fill="#544243" transform="translate(0,0)"/>
<path d="" fill="#544440" transform="translate(0,0)"/>
<path d="" fill="#534043" transform="translate(0,0)"/>
<path d="" fill="#5E4949" transform="translate(0,0)"/>
<path d="" fill="#6D4D4B" transform="translate(0,0)"/>
<path d="" fill="#864D4D" transform="translate(0,0)"/>
<path d="" fill="#684949" transform="translate(0,0)"/>
<path d="" fill="#C43A40" transform="translate(0,0)"/>
<path d="" fill="#C23F45" transform="translate(0,0)"/>
<path d="" fill="#4E4845" transform="translate(0,0)"/>
<path d="" fill="#624543" transform="translate(0,0)"/>
<path d="" fill="#6B4B4A" transform="translate(0,0)"/>
<path d="" fill="#724B4A" transform="translate(0,0)"/>
<path d="" fill="#4D4949" transform="translate(0,0)"/>
<path d="" fill="#714A49" transform="translate(0,0)"/>
<path d="" fill="#764747" transform="translate(0,0)"/>
<path d="" fill="#484543" transform="translate(0,0)"/>
<path d="" fill="#524543" transform="translate(0,0)"/>
<path d="" fill="#5E4243" transform="translate(0,0)"/>
<path d="" fill="#664344" transform="translate(0,0)"/>
<path d="" fill="#694042" transform="translate(0,0)"/>
<path d="" fill="#6B4044" transform="translate(0,0)"/>
<path d="" fill="#6F4345" transform="translate(0,0)"/>
<path d="" fill="#704643" transform="translate(0,0)"/>
<path d="" fill="#C33E41" transform="translate(0,0)"/>
<path d="" fill="#C43B40" transform="translate(0,0)"/>
<path d="" fill="#BC3C45" transform="translate(0,0)"/>
<path d="" fill="#C64043" transform="translate(0,0)"/>
<path d="" fill="#464544" transform="translate(0,0)"/>
<path d="" fill="#C73D44" transform="translate(0,0)"/>
<path d="" fill="#4A4845" transform="translate(0,0)"/>
<path d="" fill="#474443" transform="translate(0,0)"/>
<path d="" fill="#C23B41" transform="translate(0,0)"/>
<path d="" fill="#C13A3F" transform="translate(0,0)"/>
<path d="" fill="#C44147" transform="translate(0,0)"/>
<path d="" fill="#C03D42" transform="translate(0,0)"/>
<path d="" fill="#C74446" transform="translate(0,0)"/>
<path d="" fill="#C73E44" transform="translate(0,0)"/>
<path d="" fill="#C33B3F" transform="translate(0,0)"/>
<path d="" fill="#C54D4F" transform="translate(0,0)"/>
<path d="" fill="#C6494E" transform="translate(0,0)"/>
<path d="" fill="#91474A" transform="translate(0,0)"/>
<path d="" fill="#BE3E45" transform="translate(0,0)"/>
<path d="" fill="#AD3F42" transform="translate(0,0)"/>
<path d="" fill="#B54043" transform="translate(0,0)"/>
<path d="" fill="#C3373D" transform="translate(0,0)"/>
<path d="" fill="#494747" transform="translate(0,0)"/>
<path d="" fill="#474544" transform="translate(0,0)"/>
<path d="" fill="#454242" transform="translate(0,0)"/>
<path d="" fill="#B83B40" transform="translate(0,0)"/>
<path d="" fill="#B13F43" transform="translate(0,0)"/>
<path d="" fill="#B9383E" transform="translate(0,0)"/>
<path d="" fill="#814545" transform="translate(0,0)"/>
<path d="" fill="#B73B3F" transform="translate(0,0)"/>
<path d="" fill="#504645" transform="translate(0,0)"/>
<path d="" fill="#804146" transform="translate(0,0)"/>
<path d="" fill="#4C4949" transform="translate(0,0)"/>
<path d="" fill="#BC3A3D" transform="translate(0,0)"/>
<path d="" fill="#BC3C3F" transform="translate(0,0)"/>
<path d="" fill="#574746" transform="translate(0,0)"/>
<path d="" fill="#C44B50" transform="translate(0,0)"/>
<path d="" fill="#C34B4F" transform="translate(0,0)"/>
<path d="" fill="#464643" transform="translate(0,0)"/>
<path d="" fill="#C2373E" transform="translate(0,0)"/>
<path d="" fill="#C0383C" transform="translate(0,0)"/>
<path d="" fill="#BF3A40" transform="translate(0,0)"/>
<path d="" fill="#BD3A40" transform="translate(0,0)"/>
<path d="" fill="#BD363D" transform="translate(0,0)"/>
<path d="" fill="#C2383D" transform="translate(0,0)"/>
<path d="" fill="#C2373E" transform="translate(0,0)"/>
<path d="" fill="#C5393F" transform="translate(0,0)"/>
<path d="" fill="#C43239" transform="translate(0,0)"/>
<path d="" fill="#A83A40" transform="translate(0,0)"/>
<path d="" fill="#4B4545" transform="translate(0,0)"/>
<path d="" fill="#484646" transform="translate(0,0)"/>
<path d="" fill="#C83038" transform="translate(0,0)"/>
<path d="" fill="#5C4946" transform="translate(0,0)"/>
<path d="" fill="#C64046" transform="translate(0,0)"/>
<path d="" fill="#C63139" transform="translate(0,0)"/>
<path d="" fill="#C24043" transform="translate(0,0)"/>
<path d="" fill="#BE3F42" transform="translate(0,0)"/>
<path d="" fill="#BC4343" transform="translate(0,0)"/>
<path d="" fill="#444444" transform="translate(0,0)"/>
<path d="" fill="#C73237" transform="translate(0,0)"/>
<path d="" fill="#5B4849" transform="translate(0,0)"/>
<path d="" fill="#A93A42" transform="translate(0,0)"/>
<path d="" fill="#C73E44" transform="translate(0,0)"/>
<path d="" fill="#C6393D" transform="translate(0,0)"/>
<path d="" fill="#454743" transform="translate(0,0)"/>
<path d="" fill="#7F4043" transform="translate(0,0)"/>
<path d="" fill="#AC3C44" transform="translate(0,0)"/>
<path d="" fill="#C83338" transform="translate(0,0)"/>
<path d="" fill="#AA3E43" transform="translate(0,0)"/>
<path d="" fill="#4D4C4A" transform="translate(0,0)"/>
<path d="" fill="#434141" transform="translate(0,0)"/>
<path d="" fill="#C8363A" transform="translate(0,0)"/>
<path d="" fill="#C93239" transform="translate(0,0)"/>
<path d="" fill="#C7333B" transform="translate(0,0)"/>
<path d="" fill="#C7343C" transform="translate(0,0)"/>
<path d="" fill="#CA343B" transform="translate(0,0)"/>
<path d="" fill="#C73238" transform="translate(0,0)"/>
<path d="" fill="#464544" transform="translate(0,0)"/>
<path d="" fill="#C03139" transform="translate(0,0)"/>
<path d="" fill="#C73137" transform="translate(0,0)"/>
<path d="" fill="#CA3038" transform="translate(0,0)"/>
<path d="" fill="#464343" transform="translate(0,0)"/>
<path d="" fill="#444241" transform="translate(0,0)"/>
<path d="" fill="#C8353C" transform="translate(0,0)"/>
<path d="" fill="#C9353D" transform="translate(0,0)"/>
<path d="" fill="#BF353C" transform="translate(0,0)"/>
<path d="" fill="#663E3D" transform="translate(0,0)"/>
<path d="" fill="#464242" transform="translate(0,0)"/>
<path d="" fill="#C73338" transform="translate(0,0)"/>
<path d="" fill="#C53037" transform="translate(0,0)"/>
<path d="" fill="#C62E35" transform="translate(0,0)"/>
<path d="" fill="#434144" transform="translate(0,0)"/>
<path d="" fill="#C73339" transform="translate(0,0)"/>
<path d="" fill="#C53038" transform="translate(0,0)"/>
<path d="" fill="#C63239" transform="translate(0,0)"/>
<path d="" fill="#C83138" transform="translate(0,0)"/>
<path d="" fill="#B13D40" transform="translate(0,0)"/>
<path d="" fill="#C62F37" transform="translate(0,0)"/>
<path d="" fill="#CA3439" transform="translate(0,0)"/>
<path d="" fill="#5A4544" transform="translate(0,0)"/>
<path d="" fill="#C1373D" transform="translate(0,0)"/>
<path d="" fill="#C23D42" transform="translate(0,0)"/>
<path d="" fill="#4C4645" transform="translate(0,0)"/>
<path d="" fill="#C1383E" transform="translate(0,0)"/>
<path d="" fill="#853F42" transform="translate(0,0)"/>
<path d="" fill="#C73339" transform="translate(0,0)"/>
<path d="" fill="#444342" transform="translate(0,0)"/>
<path d="" fill="#4F4240" transform="translate(0,0)"/>
<path d="" fill="#4A4948" transform="translate(0,0)"/>
<path d="" fill="#C63C3F" transform="translate(0,0)"/>
<path d="" fill="#B23E45" transform="translate(0,0)"/>
<path d="" fill="#5B4644" transform="translate(0,0)"/>
<path d="" fill="#C13E45" transform="translate(0,0)"/>
<path d="" fill="#C33E44" transform="translate(0,0)"/>
<path d="" fill="#C13D41" transform="translate(0,0)"/>
<path d="" fill="#5A4747" transform="translate(0,0)"/>
<path d="" fill="#4F4D4F" transform="translate(0,0)"/>
<path d="" fill="#AC3B3E" transform="translate(0,0)"/>
<path d="" fill="#C5353B" transform="translate(0,0)"/>
<path d="" fill="#714547" transform="translate(0,0)"/>
<path d="" fill="#C7353C" transform="translate(0,0)"/>
<path d="" fill="#C72F39" transform="translate(0,0)"/>
<path d="" fill="#C73338" transform="translate(0,0)"/>
<path d="" fill="#AA393E" transform="translate(0,0)"/>
<path d="" fill="#853C40" transform="translate(0,0)"/>
<path d="" fill="#B23B40" transform="translate(0,0)"/>
<path d="" fill="#AC3C40" transform="translate(0,0)"/>
<path d="" fill="#544B4B" transform="translate(0,0)"/>
<path d="" fill="#A43C42" transform="translate(0,0)"/>
<path d="" fill="#B13B41" transform="translate(0,0)"/>
<path d="" fill="#AB3B3D" transform="translate(0,0)"/>
<path d="" fill="#AB3D41" transform="translate(0,0)"/>
<path d="" fill="#4E4C4B" transform="translate(0,0)"/>
<path d="" fill="#524C4B" transform="translate(0,0)"/>
<path d="" fill="#564A4A" transform="translate(0,0)"/>
<path d="" fill="#C64249" transform="translate(0,0)"/>
<path d="" fill="#BF484A" transform="translate(0,0)"/>
<path d="" fill="#C24246" transform="translate(0,0)"/>
<path d="" fill="#C44046" transform="translate(0,0)"/>
<path d="" fill="#C44045" transform="translate(0,0)"/>
<path d="" fill="#C04951" transform="translate(0,0)"/>
<path d="" fill="#C34248" transform="translate(0,0)"/>
<path d="" fill="#C63E44" transform="translate(0,0)"/>
<path d="" fill="#C2484B" transform="translate(0,0)"/>
<path d="" fill="#C54C50" transform="translate(0,0)"/>
</svg>
